<?xml version="1.0" encoding="utf-8"?>
<!-- Generator: Adobe Illustrator 16.0.0, SVG Export Plug-In . SVG Version: 6.00 Build 0)  -->
<!DOCTYPE svg PUBLIC "-//W3C//DTD SVG 1.1//EN" "http://www.w3.org/Graphics/SVG/1.1/DTD/svg11.dtd">
<svg version="1.1" id="Layer_1" xmlns="http://www.w3.org/2000/svg" xmlns:xlink="http://www.w3.org/1999/xlink" x="0px" y="0px"
	 width="396px" height="561.333px" viewBox="0 0 396 561.333" enable-background="new 0 0 396 561.333" xml:space="preserve">
<g>
	<path fill="none" stroke="#D0D2D3" stroke-width="3" stroke-miterlimit="10" d="M390,539.667c0,8.283-6.716,15-15,15H21
		c-8.284,0-15-6.717-15-15V21.666c0-8.284,6.716-15,15-15h354c8.284,0,15,6.716,15,15V539.667z"/>
	<g>
		<g opacity="0.3">
			<g>
				<g>
					<path fill="#FFFFFF" d="M128.738,417.574c-7.784,0-14.117-6.333-14.117-14.118V216.92c0-7.785,6.333-14.118,14.117-14.118
						h123.005c7.785,0,14.118,6.333,14.118,14.118v186.536c0,7.785-6.333,14.118-14.118,14.118H128.738z"/>
					<path fill="#A6A8AB" d="M251.743,206.331c5.848,0,10.589,4.741,10.589,10.589v186.536c0,5.848-4.741,10.589-10.589,10.589
						H128.738c-5.848,0-10.588-4.741-10.588-10.589V216.92c0-5.848,4.74-10.589,10.588-10.589H251.743 M251.743,199.272H128.738
						c-9.73,0-17.647,7.917-17.647,17.648v186.536c0,9.731,7.917,17.647,17.647,17.647h123.005c9.731,0,17.648-7.916,17.648-17.647
						V216.92C269.391,207.189,261.474,199.272,251.743,199.272L251.743,199.272z"/>
				</g>
				<g>
					<path fill="#FFFFFF" d="M237.477,407.339c-0.314,0-0.63-0.011-0.948-0.032l-122.732-8.176c-3.763-0.25-7.203-1.95-9.687-4.789
						c-2.483-2.838-3.713-6.473-3.462-10.235l12.396-186.124c0.493-7.391,6.675-13.18,14.076-13.18c0.314,0,0.63,0.01,0.949,0.031
						l122.732,8.175c3.764,0.251,7.203,1.952,9.687,4.79s3.713,6.473,3.462,10.235l-12.396,186.125
						C251.061,401.549,244.878,407.339,237.477,407.339z"/>
					<path fill="#A6A8AB" d="M127.12,188.332c0.237,0,0.475,0.008,0.714,0.024l122.732,8.175c5.836,0.389,10.25,5.434,9.861,11.269
						l-12.396,186.125c-0.373,5.595-5.027,9.885-10.555,9.885c-0.236,0-0.475-0.008-0.714-0.023l-122.732-8.176
						c-5.835-0.388-10.25-5.434-9.861-11.269l12.396-186.124C116.938,192.622,121.593,188.332,127.12,188.332 M127.12,181.272
						L127.12,181.272c-9.252,0-16.982,7.237-17.598,16.475L97.126,383.872c-0.313,4.703,1.224,9.247,4.328,12.794
						c3.104,3.549,7.405,5.675,12.109,5.987l122.731,8.176c0.393,0.025,0.791,0.039,1.183,0.039c9.253,0,16.982-7.236,17.598-16.476
						l12.397-186.125c0.313-4.704-1.224-9.248-4.328-12.794c-3.104-3.547-7.404-5.673-12.108-5.987l-122.732-8.175
						C127.911,181.286,127.513,181.272,127.12,181.272L127.12,181.272z"/>
				</g>
			</g>
			<g>
				<rect x="180.674" y="173.76" opacity="0.7" fill="#FFFFFF" width="100.592" height="164.124"/>
				<g>
					<circle fill="#FFFFFF" cx="230.969" cy="356.414" r="13.493"/>
					<g transform="translate(0,-952.36218)">
						<path d="M185.968,1099.65c-8.8,0-15.883,7.084-15.883,15.883v195.89c0,8.8,7.083,15.883,15.883,15.883h90.003
							c8.8,0,15.883-7.083,15.883-15.883v-195.89c0-8.799-7.083-15.883-15.883-15.883H185.968z M180.674,1126.122h100.592v164.124
							H180.674V1126.122z M230.969,1298.187c5.848,0,10.589,4.74,10.589,10.588c0,5.849-4.741,10.589-10.589,10.589
							s-10.588-4.74-10.588-10.589C220.381,1302.928,225.122,1298.187,230.969,1298.187z"/>
					</g>
				</g>
			</g>
		</g>
		<g>
			<path fill="#FFFFFF" d="M250.393,280.84c-2.57-9.642-9.148-15.769-18.047-16.812c-0.403-0.048-0.809-0.07-1.214-0.07
				c-0.073,0-0.147,0.001-0.22,0.001c-0.188-0.215-0.381-0.424-0.576-0.626c2.678-6.061,4.035-12.51,4.035-19.181
				c0-25.61-20.191-46.448-45.008-46.448c-24.817,0-45.007,20.838-45.007,46.448c0,6.849,1.429,13.461,4.249,19.662
				c0.569,1.386,1.358,2.642,2.318,3.732c-4.337,5.405-4.831,12.241-1.538,20.714c0.043,0.112,0.088,0.224,0.135,0.333l4.32,10.082
				c0.054,0.123,0.108,0.244,0.166,0.366c7.654,16.116,15.653,29.087,24.454,39.651c1.983,2.381,4.923,3.757,8.021,3.757h38.887
				c2.238,0,4.418-0.719,6.216-2.05C245.391,330.171,255.235,299,250.393,280.84z"/>
			<path fill="#00CC00" d="M189.364,208.145c19.127,0,34.566,16.225,34.566,36.008c0,5.587-1.23,10.846-3.42,15.573
				c-0.057,0.157-0.125,0.309-0.207,0.453c-0.531,0.937-1.506,1.462-2.51,1.462c-0.48,0-0.969-0.121-1.417-0.375
				c-1.384-0.782-1.872-2.541-1.088-3.926c1.847-3.987,2.88-8.44,2.88-13.188c0-16.806-12.933-30.246-28.805-30.246
				s-28.806,13.44-28.806,30.246c0,4.747,1.034,9.2,2.881,13.188c0.081,0.146,0.15,0.296,0.206,0.453
				c0.534,1.498-0.248,3.146-1.747,3.681c-0.319,0.113-0.646,0.167-0.967,0.167c-1.184,0-2.293-0.735-2.713-1.915
				c-2.19-4.728-3.421-9.986-3.421-15.573C154.797,224.369,170.237,208.145,189.364,208.145 M189.364,218.228
				c13.592,0,24.484,11.738,24.484,25.925c0,4.699-1.221,9.076-3.285,12.874c-0.066,0.151-0.146,0.298-0.238,0.436
				c-0.555,0.838-1.471,1.291-2.404,1.291c-0.547,0-1.1-0.155-1.588-0.48c-1.327-0.878-1.689-2.666-0.811-3.993
				c1.625-2.989,2.564-6.414,2.564-10.127c0-11.267-8.451-20.164-18.723-20.164s-18.724,8.897-18.724,20.164
				c0,3.713,0.939,7.138,2.565,10.127c0.092,0.14,0.171,0.286,0.238,0.438c0.637,1.457-0.028,3.156-1.485,3.793
				c-0.376,0.165-0.769,0.243-1.153,0.243c-1.109,0-2.168-0.645-2.641-1.727c-2.064-3.798-3.286-8.175-3.286-12.874
				C164.878,229.966,175.772,218.228,189.364,218.228 M189.364,231.189c4.871,0,8.65,3.741,8.642,8.643
				c-0.013,7.558-0.039,26.066,0,33.126c0-2.88,2.89-7.201,7.201-7.201c2.503,0,7.202,1.439,7.202,8.642
				c0-2.88,1.453-5.76,5.76-5.76c2.545,0,7.201,1.439,7.201,10.081c0-2.88,2.893-4.321,5.763-4.321
				c18.905,2.213,7.907,47.485-5.763,57.611h-38.887c-7.199-8.642-14.929-20.357-23.044-37.447l-4.321-10.082
				c-2.841-7.313-1.288-10.183,2.881-12.962c1.629-0.944,3.764-1.942,6.051-1.941c2.771,0,5.766,1.465,8.353,6.263l4.32,8.641
				v-44.648C180.722,234.931,184.493,231.189,189.364,231.189"/>
		</g>
	</g>
</g>
</svg>
