<?xml version="1.0" encoding="utf-8"?>
<!-- Generator: Adobe Illustrator 16.0.0, SVG Export Plug-In . SVG Version: 6.00 Build 0)  -->
<!DOCTYPE svg PUBLIC "-//W3C//DTD SVG 1.1//EN" "http://www.w3.org/Graphics/SVG/1.1/DTD/svg11.dtd">
<svg version="1.1" id="Layer_1" xmlns="http://www.w3.org/2000/svg" xmlns:xlink="http://www.w3.org/1999/xlink" x="0px" y="0px"
	 width="272.234px" height="97.908px" viewBox="0 0 272.234 97.908" enable-background="new 0 0 272.234 97.908"
	 xml:space="preserve">
<g>
	<path fill="#26A9E0" d="M0,76.133V0h16.543c5.64,0,10.104,0.861,13.395,2.585c3.289,1.724,5.64,4.309,7.049,7.754
		c1.41,3.447,2.115,7.74,2.115,12.877v28.009c0,5.391-0.705,9.934-2.115,13.629c-1.409,3.699-3.697,6.502-6.861,8.412
		c-3.165,1.912-7.41,2.867-12.736,2.867H0z M10.622,68.52h6.015c3.885,0,6.642-0.752,8.271-2.256
		c1.629-1.504,2.616-3.697,2.961-6.58c0.344-2.881,0.518-6.359,0.518-10.432v-24.72c0-3.948-0.252-7.144-0.752-9.588
		c-0.503-2.443-1.599-4.229-3.29-5.357c-1.692-1.128-4.356-1.691-7.989-1.691h-5.733V68.52z"/>
	<path fill="#26A9E0" d="M64.291,76.979c-5.139,0-9.244-1.002-12.313-3.008c-3.07-2.004-5.264-4.871-6.579-8.6
		c-1.316-3.729-1.974-8.098-1.974-13.111V23.404c0-5.013,0.672-9.32,2.021-12.925c1.347-3.603,3.539-6.358,6.579-8.271
		c3.039-1.911,7.128-2.867,12.267-2.867c5.138,0,9.211,0.973,12.219,2.914c3.008,1.942,5.185,4.699,6.533,8.271
		c1.347,3.571,2.021,7.864,2.021,12.877v28.949c0,4.949-0.674,9.273-2.021,12.971c-1.349,3.697-3.525,6.564-6.533,8.6
		C73.502,75.961,69.429,76.979,64.291,76.979z M64.291,68.613c2.819,0,4.949-0.578,6.392-1.738c1.44-1.158,2.411-2.787,2.914-4.889
		c0.5-2.098,0.752-4.559,0.752-7.377V21.242c0-2.82-0.252-5.247-0.752-7.284c-0.503-2.036-1.474-3.603-2.914-4.7
		c-1.442-1.096-3.572-1.645-6.392-1.645c-2.82,0-4.967,0.549-6.438,1.645c-1.474,1.098-2.46,2.664-2.961,4.7
		c-0.502,2.037-0.752,4.464-0.752,7.284v33.367c0,2.818,0.25,5.279,0.752,7.377c0.501,2.102,1.487,3.73,2.961,4.889
		C59.324,68.035,61.471,68.613,64.291,68.613z"/>
	<path fill="#26A9E0" d="M109.876,76.979c-5.39,0-9.572-1.127-12.548-3.383c-2.977-2.256-5.045-5.295-6.203-9.117
		c-1.16-3.822-1.739-8.084-1.739-12.783V24.813c0-5.137,0.579-9.618,1.739-13.44c1.158-3.821,3.227-6.782,6.203-8.883
		c2.976-2.099,7.158-3.148,12.548-3.148c4.762,0,8.538,0.878,11.326,2.632c2.788,1.755,4.794,4.262,6.016,7.52
		c1.223,3.259,1.833,7.176,1.833,11.749v6.016h-10.057V21.9c0-2.82-0.142-5.311-0.424-7.473c-0.281-2.162-1.05-3.838-2.303-5.028
		c-1.254-1.19-3.353-1.786-6.297-1.786c-3.008,0-5.202,0.644-6.58,1.927c-1.379,1.285-2.271,3.102-2.679,5.451
		c-0.408,2.351-0.61,5.092-0.61,8.225v30.171c0,3.822,0.313,6.848,0.939,9.07c0.626,2.225,1.659,3.807,3.102,4.746
		c1.441,0.941,3.384,1.41,5.828,1.41c2.881,0,4.949-0.641,6.203-1.926c1.253-1.285,2.035-3.055,2.35-5.311
		c0.313-2.256,0.471-4.889,0.471-7.896v-5.639h10.057v5.639c0,4.639-0.563,8.727-1.691,12.266c-1.128,3.541-3.071,6.299-5.828,8.271
		C118.773,75.992,114.889,76.979,109.876,76.979z"/>
	<path fill="#00A69C" d="M134.348,97.908h-9.963L145.533,0h10.246l16.26,76.133h-10.057l-11.279-61.094L134.348,97.908z"/>
	<path fill="#37B34A" d="M175.046,76.133V0h18.893c4.574,0,8.225,0.831,10.949,2.49c2.727,1.661,4.715,4.059,5.969,7.19
		c1.254,3.135,1.881,6.925,1.881,11.373c0,4.012-0.705,7.489-2.115,10.434c-1.41,2.946-3.494,5.217-6.25,6.814
		c-2.758,1.598-6.203,2.396-10.34,2.396h-8.365v35.435H175.046z M185.667,33.085h4.887c3.07,0,5.482-0.344,7.238-1.033
		c1.754-0.689,3.008-1.895,3.76-3.619c0.752-1.723,1.129-4.15,1.129-7.284c0-3.634-0.268-6.423-0.801-8.365
		c-0.531-1.942-1.645-3.29-3.336-4.042s-4.324-1.128-7.895-1.128h-4.982V33.085z"/>
	<path fill="#37B34A" d="M216.027,76.133V0h10.434v76.133H216.027z"/>
	<path fill="#37B34A" d="M229.373,76.133l15.885-39.852L229.654,0h9.869l11.563,26.882L261.613,0h9.869l-15.98,37.127l16.732,39.006
		h-9.869l-12.408-28.667l-10.715,28.667H229.373z"/>
</g>
</svg>
